<svg version="1.1" xmlns="http://www.w3.org/2000/svg" viewBox="0 0 303.8461538461537 118.84615384615381" width="303.8461538461537" height="118.84615384615381">
  <!-- svg-source:excalidraw -->
  
  <defs>
    <style class="style-fonts">
      @font-face {
        font-family: "Virgil";
        src: url("https://excalidraw.com/Virgil.woff2");
      }
      @font-face {
        font-family: "Cascadia";
        src: url("https://excalidraw.com/Cascadia.woff2");
      }
    </style>
    
  </defs>
  <rect x="0" y="0" width="303.8461538461537" height="118.84615384615381" fill="#ffffff"></rect><g stroke-linecap="round" transform="translate(10 10) rotate(0 141.92307692307685 49.423076923076906)"><path d="M0 0 C0 0, 0 0, 0 0 M0 0 C0 0, 0 0, 0 0 M-0.86 13.62 C5.64 6.58, 8.05 3.94, 10.14 -0.36 M-0.53 12.65 C2.2 8.52, 4.68 5.78, 10.96 -0.49 M-0.34 23.04 C3.67 18.31, 11.78 13.03, 20.87 -1.55 M0.96 24.28 C4.51 18.08, 8.96 12.94, 21.94 -0.24 M-1.82 36.1 C7.08 28.06, 17.89 17.3, 33.75 -0.21 M0.15 37.57 C7.16 28.02, 14.68 17.66, 31.99 0.39 M-1.36 49.72 C15.22 31.47, 31.17 13.27, 44.44 -0.29 M0.11 48.19 C15.23 31.76, 30.56 12.47, 41.56 -0.92 M-0.28 59.97 C21.45 38.67, 40.24 13.85, 54.01 -0.14 M-0.12 61.95 C20.29 36.92, 41.96 13.74, 53.91 0.07 M1.54 72.21 C13.77 60.38, 27.33 45.45, 63.14 -1.96 M0.35 72.11 C24.2 44.62, 47.75 17.54, 63.58 -0.78 M-0.69 84.46 C16.16 67.33, 35.05 48.11, 76.39 0.97 M-0.11 85.29 C25.85 56.39, 50.98 27.97, 73.67 0.14 M-1 96.87 C34 61.59, 64.02 22.61, 84.57 -1.12 M-0.95 98.41 C20.03 75.24, 39.22 55.04, 84.24 -0.62 M3.52 105.34 C37.83 66.44, 69.59 29.4, 97 -1.72 M4.8 104.71 C29.14 76.95, 53.08 49.17, 95.61 0.56 M14.59 102.85 C42.69 72.66, 69.52 42.78, 107.88 0.62 M15.41 104.6 C50.84 64.47, 83.4 25.01, 106.73 -0.48 M25.68 103.06 C49.51 77.02, 74.45 48.21, 115.86 -0.31 M25.44 103.76 C52.32 75.4, 76.82 44.87, 115.89 1.28 M36.18 101.74 C57.87 78.39, 80.14 55.35, 125.07 1.38 M36.92 103.94 C68.83 69.7, 97.59 34.05, 127.61 0.12 M48.43 105.47 C81.66 68.29, 112.1 31.04, 137.45 0.79 M48.43 104.22 C67.98 80.86, 86.86 56.42, 138.13 0.29 M60.08 104.31 C86.16 74.87, 108.59 43.5, 149.67 1.99 M58.45 103.12 C90.33 65.79, 122.58 27.73, 148.34 0.16 M70.35 102.53 C96.12 72.64, 120.51 45, 156.84 -0.59 M69.73 103.78 C91.76 76.09, 115.18 50.33, 158.47 1.09 M80.39 103.26 C100.08 76.14, 122.84 51.44, 170.76 0.52 M78.61 104.08 C108.45 70.44, 134.85 38.86, 168.44 0.65 M91.54 103.18 C110.61 78.92, 129.03 55.99, 180.27 -1.42 M89.34 103.87 C115.54 74.71, 139.63 46.74, 179.2 0.7 M101.72 105.25 C124.29 74.31, 153.98 45.05, 189.58 -0.76 M101.48 103.03 C134.59 66.81, 165.28 29.16, 191.06 0.62 M111.65 105.33 C136.5 75.29, 159.04 51.55, 202.53 1.31 M112.2 102.71 C137.88 72.61, 163.04 43.29, 201.07 -0.6 M121.24 104.91 C150.96 71.33, 176.51 36.24, 212.95 -0.61 M121.65 103.43 C153.86 67.8, 183.4 32.23, 211.32 0.85 M131.85 101.82 C162.74 68.65, 194.88 30.68, 220.93 0.59 M133.27 104.27 C155.49 79.47, 175.89 53.66, 222.33 -0.28 M142.63 102.86 C161.88 80.82, 177.43 61.73, 235.18 -0.81 M143.17 103.02 C179.62 63.07, 214.83 22.14, 233.34 0.89 M152.83 102.51 C189.98 61.24, 222.93 22, 245.31 1.35 M154.46 103.3 C173.69 81.85, 191.57 61.67, 243.71 -0.51 M166.1 103.65 C196.45 68.92, 225.13 32.25, 256.14 -0.19 M164.58 102.79 C190.67 74.43, 217.58 43.23, 255.22 0.08 M176.83 104.21 C204.51 68.94, 234.6 35.79, 264.04 -1.48 M175.68 102.3 C207.83 65.6, 240.9 26.02, 265.43 0.78 M186.41 101.84 C213.74 70.77, 238.61 39.37, 275.21 -0.59 M185.92 104.01 C214.09 69.95, 243.75 37.15, 276.03 0.48 M197.61 104.67 C217.83 77.27, 238.52 53.97, 284.72 0.49 M195.84 102.55 C221.9 75.78, 245.47 48.96, 284.87 0.45 M206.84 103.93 C238.02 68.14, 267.47 35.23, 285.51 12.68 M207.7 103.21 C222.12 84.56, 239.07 66.1, 285.04 13.55 M217.82 105.41 C237.33 81.84, 257.38 58.48, 284.4 25.25 M217.15 103.83 C239.12 78.03, 263.53 50.91, 285.85 25.23 M228.53 103.15 C242.44 90.48, 257.23 71.08, 286.11 38.71 M227.25 103.95 C239.4 89.9, 252.52 74.52, 284.93 36.87 M237.59 102.63 C255.75 85.63, 271.55 64.58, 286.1 51.72 M238.8 104.45 C254.94 85.69, 271.1 65.26, 284.07 50.11 M247.15 102.44 C259.93 94.11, 268.71 81.72, 283.52 60.72 M248.37 104.76 C255.81 94.22, 264.87 85.78, 284.25 63.02 M260.62 105.75 C270.42 92.92, 278.19 79.78, 285.61 73.19 M259.97 104.72 C265.51 97.12, 272.11 89.22, 284.98 74.73 M270.91 104.97 C272.92 101.25, 276.64 97.79, 284.57 87.25 M270.37 102.75 C277.05 96.45, 282.41 90.16, 285.34 85.63" stroke="#ffc9c9" stroke-width="1" fill="none"></path><path d="M0.84 0.18 C86.18 0.54, 172.91 -0.42, 282.6 -0.63 M-0.54 -0.21 C104.27 0.84, 207.82 0.3, 283.53 -0.66 M281.9 1.55 C284 29.39, 285.62 57.14, 282.14 98.44 M282.93 0.3 C284.36 23.74, 285.04 47.56, 283.82 98.86 M283.24 98.53 C205.19 96, 128.47 97.69, -0.29 97.47 M283.6 98.94 C197.65 100.21, 111.66 100.47, -0.59 99.28 M-0.24 96.97 C0.8 61.9, -1.08 27.05, 0.37 1.91 M-0.91 98.17 C-0.21 74.57, -0.94 51.65, -0.67 0.66" stroke="#c92a2a" stroke-width="2" fill="none"></path></g><g transform="translate(65.76923076923083 37.82973529439647) rotate(0 88.036376953125 23.00820927587867)"><text x="0" y="0" font-family="Virgil, Segoe UI Emoji" font-size="36.81313484140586px" fill="#c92a2a" text-anchor="start" style="white-space: pre;" direction="ltr" dominant-baseline="text-before-edge">Erlang VM</text></g></svg>
