<?xml version="1.0" encoding="utf-8"?>
<svg viewBox="0.676 3.248 167.1 229.192" xmlns="http://www.w3.org/2000/svg">
  <defs>
    <clipPath clipPathUnits="userSpaceOnUse" id="clipPath20">
      <path d="M 0,500 H 750 V 0 H 0 Z" id="path18"/>
    </clipPath>
    <clipPath clipPathUnits="userSpaceOnUse" id="clipPath1236">
      <path d="m 274.911,142.879 h 82.59 V 69.0039 h -82.59 z" id="path1234"/>
    </clipPath>
  </defs>
  <g id="g8" transform="matrix(1.3333332538604736, 0, 0, -1.3333332538604736, 0, 666.6666870117186)">
    <g id="g14">
      <g id="g16" clip-path="url(#clipPath20)" transform="matrix(1, 0, 0, 1, -23.605152, 28.433477)">
        <g id="g1034" transform="matrix(1, 0, 0, 1, 88.026978, 343.501404)">
          <path d="m 0,0 c -0.293,-0.049 -0.584,0.26 -0.643,0.678 0,0 -0.291,1.965 -0.626,5.412 -0.33,3.449 -0.704,8.385 -0.807,14.32 -0.221,11.844 0.671,27.791 4.675,43.164 1.972,7.674 4.746,15.16 8.187,21.764 3.394,6.631 7.535,12.301 11.572,16.68 0.497,0.554 0.986,1.097 1.463,1.628 0.495,0.514 1.02,0.973 1.509,1.446 0.99,0.929 1.929,1.812 2.813,2.644 1.885,1.52 3.551,2.823 4.923,3.891 2.913,1.902 4.579,2.988 4.579,2.988 0.354,0.237 0.767,0.211 0.922,-0.052 0.145,-0.249 -0.02,-0.637 -0.367,-0.87 0,0 -1.64,-1.068 -4.508,-2.941 -1.349,-1.053 -2.988,-2.334 -4.845,-3.828 -0.868,-0.819 -1.793,-1.69 -2.768,-2.606 -0.482,-0.463 -0.999,-0.916 -1.486,-1.422 -0.469,-0.523 -0.949,-1.056 -1.44,-1.603 C 19.176,96.982 15.094,91.395 11.741,84.842 8.341,78.318 5.595,70.912 3.64,63.303 -0.331,48.066 -1.221,32.207 -1,20.43 -0.898,14.529 -0.526,9.619 -0.199,6.195 0.134,2.77 0.422,0.83 0.423,0.83 0.48,0.416 0.293,0.049 0,0" style="fill:#7c860a;fill-opacity:1;fill-rule:nonzero;stroke:none" id="path1036"/>
        </g>
        <g id="g1038" transform="matrix(1, 0, 0, 1, 120.202271, 436.684998)">
          <path d="m 0,0 c -3.124,0.162 -6.1,1.602 -8.217,3.068 -2.114,1.45 -3.389,2.971 -3.39,2.971 0,0 0.538,0.441 1.445,1.102 0.917,0.646 2.156,1.556 3.661,2.361 1.553,0.754 3.296,1.477 5.023,1.951 1.796,0.399 3.618,0.494 5.202,0.209 C 4.521,11.52 5.25,11.328 5.917,11.105 6.594,10.865 7.229,10.561 7.786,10.254 8.906,9.627 9.773,8.91 10.406,8.162 11.667,6.658 12.021,5.033 11.448,3.674 10.967,2.174 9.637,1.217 7.662,0.66 5.797,-0.027 3.057,-0.086 0,0" style="fill:#99ba13;fill-opacity:1;fill-rule:nonzero;stroke:none" id="path1040"/>
        </g>
        <g id="g1042" transform="matrix(1, 0, 0, 1, 101.508972, 453.792419)">
          <path d="m 0,0 c -0.114,-3.766 1.731,-6.461 3.529,-8.285 1.818,-1.826 3.557,-2.783 3.557,-2.783 0,0 0.373,0.572 0.935,1.547 0.572,0.962 1.288,2.375 2.108,3.953 0.871,1.529 1.776,3.295 2.53,5.156 0.818,1.781 1.537,3.603 1.84,5.402 0.153,0.895 0.264,1.746 0.33,2.549 0.077,0.789 0.128,1.498 0.118,2.178 -0.013,1.347 -0.223,2.494 -0.632,3.39 -0.811,1.795 -2.444,2.586 -4.73,2.081 C 7.4,14.553 4.996,12.715 3.152,10.033 1.421,7.232 0.034,3.824 0,0" style="fill:#7c860a;fill-opacity:1;fill-rule:nonzero;stroke:none" id="path1044"/>
        </g>
        <g id="g1046" transform="matrix(1, 0, 0, 1, 125.418091, 463.366699)">
          <path d="m 0,0 c -3.466,-1.475 -5.138,-4.279 -6.04,-6.678 -0.896,-2.416 -1.034,-4.396 -1.034,-4.396 0,0 0.676,-0.1 1.796,-0.199 1.115,-0.118 2.697,-0.172 4.473,-0.256 1.752,-0.151 3.737,-0.231 5.742,-0.133 1.96,0.004 3.915,0.115 5.675,0.596 0.876,0.234 1.696,0.49 2.452,0.769 0.749,0.262 1.414,0.512 2.027,0.805 1.218,0.578 2.17,1.248 2.812,1.996 1.291,1.488 1.325,3.305 -0.095,5.166 C 16.316,-0.613 13.64,0.799 10.431,1.348 7.164,1.746 3.487,1.574 0,0" style="fill:#99ba13;fill-opacity:1;fill-rule:nonzero;stroke:none" id="path1048"/>
        </g>
        <g id="g1050" transform="matrix(1, 0, 0, 1, 110.368286, 422.427216)">
          <path d="m 0,0 c -3.057,-0.777 -6.28,-0.162 -8.695,0.713 -2.422,0.869 -4.036,2.016 -4.036,2.016 0,0 0.39,0.572 1.071,1.457 0.343,0.441 0.749,0.964 1.231,1.523 0.513,0.543 1.09,1.125 1.714,1.715 1.246,1.18 2.661,2.408 4.304,3.291 0.801,0.453 1.615,0.851 2.428,1.162 0.807,0.314 1.62,0.535 2.464,0.605 3.318,0.323 5.793,-0.291 7.442,-1.337 C 9.568,10.094 10.401,8.617 10.288,7.076 10.237,6.297 9.912,5.605 9.429,4.908 8.965,4.193 8.284,3.537 7.394,2.949 6.952,2.65 6.442,2.387 5.912,2.109 5.398,1.818 4.833,1.545 4.221,1.291 3.001,0.779 1.566,0.361 0,0" style="fill:#99ba13;fill-opacity:1;fill-rule:nonzero;stroke:none" id="path1052"/>
        </g>
        <g id="g1054" transform="matrix(1, 0, 0, 1, 87.81897, 433.985809)">
          <path d="M 0,0 C 0.972,-3.594 3.466,-5.732 5.675,-7.041 7.89,-8.342 9.818,-8.83 9.818,-8.83 c 0,0 0.199,0.66 0.463,1.756 0.124,0.551 0.272,1.211 0.438,1.949 0.192,0.723 0.39,1.527 0.579,2.393 0.373,1.73 0.68,3.705 0.986,5.623 0.131,0.972 0.216,1.953 0.236,2.918 0.014,0.968 -0.029,1.916 -0.106,2.787 -0.377,3.521 -1.273,6.201 -2.597,7.675 C 8.5,17.748 6.738,18.01 4.778,16.838 0.72,14.574 -1.769,7.109 0,0" style="fill:#7c860a;fill-opacity:1;fill-rule:nonzero;stroke:none" id="path1056"/>
        </g>
        <g id="g1058" transform="matrix(1, 0, 0, 1, 103.877594, 405.462402)">
          <path d="m 0,0 c -2.958,-1.422 -6.152,-1.486 -8.713,-1.084 -2.539,0.387 -4.348,1.207 -4.348,1.207 0,0 0.264,0.637 0.748,1.641 0.504,1 1.296,2.345 2.243,3.779 0.914,1.443 2.188,2.902 3.505,4.184 1.3,1.291 2.841,2.322 4.398,2.912 1.554,0.59 2.971,0.906 4.232,1.002 C 3.337,13.73 4.477,13.582 5.409,13.285 7.298,12.672 8.37,11.492 8.646,9.848 8.922,8.195 8.111,6.541 6.684,4.803 5.956,3.945 4.975,3.131 3.864,2.314 2.77,1.492 1.475,0.709 0,0" style="fill:#7c860a;fill-opacity:1;fill-rule:nonzero;stroke:none" id="path1060"/>
        </g>
        <g id="g1062" transform="matrix(1, 0, 0, 1, 79.463989, 412.247498)">
          <path d="m 0,0 c 0.782,-1.611 1.941,-2.824 3.176,-3.74 1.234,-0.912 2.557,-1.533 3.769,-1.961 2.427,-0.854 4.408,-0.961 4.408,-0.961 0,0 0.059,0.685 0.092,1.814 0.054,1.125 0.15,2.676 0.123,4.446 -0.059,1.777 -0.031,3.718 -0.265,5.664 -0.253,1.955 -0.56,3.853 -1.198,5.504 C 9.463,12.42 8.748,13.826 7.986,14.953 7.235,16.08 6.467,16.92 5.64,17.461 4.021,18.545 2.153,18.406 0.639,16.867 -2.513,13.822 -3.337,6.451 0,0" style="fill:#99ba13;fill-opacity:1;fill-rule:nonzero;stroke:none" id="path1064"/>
        </g>
        <g id="g1066" transform="matrix(1, 0, 0, 1, 100.284271, 386.970215)">
          <path d="m 0,0 c -2.713,-1.912 -5.893,-2.432 -8.475,-2.404 -2.568,0.017 -4.476,0.57 -4.476,0.57 0,0 0.162,0.67 0.511,1.734 0.369,1.061 0.918,2.516 1.633,4.082 0.727,1.565 1.705,3.227 2.788,4.725 1.099,1.498 2.441,2.801 3.845,3.686 1.406,0.884 2.759,1.472 4.021,1.804 1.249,0.338 2.377,0.43 3.352,0.321 1.949,-0.225 3.298,-1.25 3.773,-2.856 C 8.024,8.391 5.306,3.877 0,0" style="fill:#99ba13;fill-opacity:1;fill-rule:nonzero;stroke:none" id="path1068"/>
        </g>
        <g id="g1070" transform="matrix(1, 0, 0, 1, 75.130096, 390.020996)">
          <path d="m 0,0 c 2.071,-2.889 5.195,-4.062 7.704,-4.564 2.524,-0.497 4.5,-0.321 4.5,-0.321 0,0 -0.048,0.69 -0.164,1.809 -0.094,1.117 -0.264,2.668 -0.563,4.406 C 11.188,3.066 10.855,4.984 10.293,6.85 9.747,8.715 9.112,10.516 8.157,12.008 7.203,13.502 6.251,14.729 5.327,15.676 4.39,16.625 3.448,17.293 2.535,17.666 0.712,18.41 -0.997,17.951 -2.278,16.24 -3.478,14.537 -4.032,11.914 -3.672,9 -3.483,7.543 -3.096,6.014 -2.505,4.488 -1.898,2.963 -1.038,1.445 0,0" style="fill:#7c860a;fill-opacity:1;fill-rule:nonzero;stroke:none" id="path1072"/>
        </g>
        <g id="g1074" transform="matrix(1, 0, 0, 1, 99.124695, 367.757324)">
          <path d="m 0,0 c -2.412,-2.256 -5.573,-3.133 -8.129,-3.406 -2.557,-0.28 -4.511,0.051 -4.511,0.051 0,0 0.099,0.685 0.324,1.783 0.212,1.097 0.59,2.607 1.133,4.252 1.066,3.293 2.902,7.095 5.499,9.242 C -0.48,16.207 4.09,15.889 5.469,12.75 6.924,9.559 4.862,4.523 0,0" style="fill:#99ba13;fill-opacity:1;fill-rule:nonzero;stroke:none" id="path1076"/>
        </g>
        <g id="g1078" transform="matrix(1, 0, 0, 1, 73.785797, 367.808105)">
          <path d="m 0,0 c 2.455,-2.586 5.63,-3.398 8.191,-3.604 2.561,-0.201 4.508,0.198 4.508,0.198 0,0 -0.111,0.679 -0.355,1.779 -0.255,1.098 -0.601,2.615 -1.087,4.303 C 10.266,6.047 8.833,10.107 6.589,12.789 4.305,15.465 2.167,17.076 0.234,17.545 -1.678,18.02 -3.301,17.342 -4.318,15.525 -6.298,11.908 -4.878,5.162 0,0" style="fill:#99ba13;fill-opacity:1;fill-rule:nonzero;stroke:none" id="path1080"/>
        </g>
        <g id="g1082" transform="matrix(1, 0, 0, 1, 93.343384, 333.278809)">
          <path d="m 0,0 c -0.221,0.004 -0.393,0.266 -0.381,0.578 0,0 0.045,1.471 0.252,4.029 0.21,2.559 0.583,6.207 1.285,10.551 1.388,8.666 4.125,20.18 9.056,30.869 2.443,5.34 5.446,10.436 8.82,14.803 3.343,4.393 7.105,7.986 10.622,10.649 0.437,0.339 0.864,0.673 1.281,0.998 0.427,0.31 0.871,0.576 1.29,0.857 0.843,0.549 1.644,1.07 2.398,1.559 1.573,0.863 2.959,1.595 4.099,2.195 2.374,1.006 3.73,1.582 3.73,1.582 0.289,0.125 0.588,0.053 0.666,-0.16 0.073,-0.201 -0.097,-0.463 -0.381,-0.586 0,0 -1.336,-0.567 -3.673,-1.555 C 37.942,75.777 36.58,75.055 35.029,74.209 34.289,73.727 33.501,73.213 32.67,72.67 32.258,72.398 31.821,72.135 31.4,71.828 30.989,71.51 30.569,71.182 30.139,70.848 26.675,68.225 22.966,64.684 19.664,60.344 16.331,56.029 13.358,50.988 10.937,45.695 6.048,35.1 3.323,23.648 1.943,15.031 1.245,10.715 0.874,7.084 0.665,4.543 0.459,2.002 0.416,0.549 0.416,0.549 0.403,0.238 0.219,-0.004 0,0" style="fill:#7c860a;fill-opacity:1;fill-rule:nonzero;stroke:none" id="path1084"/>
        </g>
        <g id="g1086" transform="matrix(1, 0, 0, 1, 129.002075, 397.030701)">
          <path d="m 0,0 c -2.257,0.529 -4.239,1.969 -5.591,3.314 -1.352,1.332 -2.084,2.612 -2.084,2.612 0,0 0.45,0.25 1.198,0.611 0.753,0.354 1.776,0.854 2.979,1.244 C -2.266,8.129 -0.9,8.428 0.421,8.549 1.783,8.604 3.125,8.436 4.243,8.02 4.805,7.811 5.312,7.576 5.769,7.326 6.232,7.062 6.654,6.758 7.021,6.461 7.756,5.857 8.295,5.221 8.658,4.592 9.381,3.33 9.427,2.098 8.831,1.184 8.284,0.152 7.188,-0.371 5.675,-0.518 4.225,-0.777 2.219,-0.461 0,0" style="fill:#7c860a;fill-opacity:1;fill-rule:nonzero;stroke:none" id="path1088"/>
        </g>
        <g id="g1090" transform="matrix(1, 0, 0, 1, 117.607086, 411.956512)">
          <path d="M 0,0 C -0.576,-2.732 0.417,-4.941 1.49,-6.506 2.576,-8.076 3.72,-9 3.72,-9 c 0,0 0.347,0.367 0.884,1.004 0.543,0.629 1.25,1.564 2.055,2.609 0.835,0.998 1.727,2.17 2.519,3.426 0.83,1.195 1.593,2.43 2.049,3.703 0.229,0.631 0.422,1.238 0.575,1.815 0.159,0.566 0.289,1.076 0.37,1.572 0.167,0.984 0.164,1.85 -0.016,2.555 C 11.799,9.102 10.711,9.893 8.978,9.82 7.301,9.643 5.307,8.619 3.611,6.904 1.983,5.088 0.525,2.783 0,0" style="fill:#99ba13;fill-opacity:1;fill-rule:nonzero;stroke:none" id="path1092"/>
        </g>
        <g id="g1094" transform="matrix(1, 0, 0, 1, 136.297974, 415.809998)">
          <path d="m 0,0 c -2.721,-0.623 -4.307,-2.449 -5.279,-4.08 -0.971,-1.649 -1.329,-3.07 -1.329,-3.07 0,0 0.48,-0.162 1.284,-0.381 0.798,-0.233 1.944,-0.479 3.228,-0.774 1.259,-0.338 2.695,-0.656 4.17,-0.847 1.431,-0.254 2.872,-0.428 4.218,-0.309 0.67,0.059 1.3,0.137 1.889,0.24 0.581,0.094 1.098,0.19 1.584,0.323 0.964,0.263 1.746,0.625 2.312,1.087 1.136,0.918 1.398,2.237 0.606,3.782 -0.863,1.447 -2.63,2.826 -4.9,3.646 C 5.453,0.334 2.75,0.691 0,0" style="fill:#7c860a;fill-opacity:1;fill-rule:nonzero;stroke:none" id="path1096"/>
        </g>
        <g id="g1098" transform="matrix(1, 0, 0, 1, 119.964996, 387.921417)">
          <path d="m 0,0 c -2.332,-0.168 -4.602,0.703 -6.249,1.656 -1.652,0.951 -2.68,1.998 -2.68,1.998 0,0 0.359,0.367 0.972,0.924 0.307,0.276 0.673,0.604 1.097,0.949 0.445,0.328 0.942,0.678 1.475,1.026 1.063,0.699 2.256,1.408 3.57,1.838 0.643,0.226 1.289,0.41 1.922,0.529 C 0.737,9.045 1.358,9.1 1.983,9.039 4.446,8.84 6.171,8.07 7.237,7.092 8.299,6.107 8.713,4.924 8.429,3.814 8.29,3.252 7.962,2.791 7.519,2.344 7.087,1.885 6.504,1.494 5.778,1.182 5.417,1.021 5.011,0.896 4.587,0.764 4.174,0.617 3.727,0.492 3.247,0.389 2.291,0.174 1.188,0.059 0,0" style="fill:#99ba13;fill-opacity:1;fill-rule:nonzero;stroke:none" id="path1100"/>
        </g>
        <g id="g1102" transform="matrix(1, 0, 0, 1, 105.030396, 399.300323)">
          <path d="m 0,0 c 0.238,-2.746 1.778,-4.633 3.218,-5.877 1.445,-1.24 2.788,-1.848 2.788,-1.848 0,0 0.23,0.455 0.567,1.221 0.163,0.387 0.357,0.848 0.574,1.365 0.235,0.502 0.485,1.063 0.735,1.67 0.499,1.211 0.982,2.612 1.456,3.971 0.222,0.689 0.412,1.396 0.554,2.096 0.137,0.705 0.229,1.4 0.287,2.047 0.185,2.617 -0.116,4.689 -0.89,5.937 -0.768,1.25 -2.018,1.672 -3.601,1.074 C 2.433,10.535 -0.36,5.414 0,0" style="fill:#99ba13;fill-opacity:1;fill-rule:nonzero;stroke:none" id="path1104"/>
        </g>
        <g id="g1106" transform="matrix(1, 0, 0, 1, 113.011383, 376.395996)">
          <path d="m 0,0 c -2.344,-0.65 -4.682,-0.279 -6.498,0.35 -1.8,0.615 -3.012,1.449 -3.012,1.449 0,0 0.275,0.43 0.76,1.099 0.499,0.663 1.252,1.541 2.13,2.461 0.855,0.934 1.975,1.832 3.104,2.594 C -2.398,8.727 -1.14,9.275 0.072,9.5 1.283,9.729 2.358,9.773 3.291,9.678 4.229,9.578 5.042,9.322 5.683,8.982 6.98,8.287 7.607,7.287 7.595,6.051 7.579,4.809 6.771,3.709 5.503,2.629 4.859,2.098 4.038,1.633 3.12,1.182 2.214,0.725 1.168,0.324 0,0" style="fill:#99ba13;fill-opacity:1;fill-rule:nonzero;stroke:none" id="path1108"/>
        </g>
        <g id="g1110" transform="matrix(1, 0, 0, 1, 96.092499, 384.538513)">
          <path d="m 0,0 c 0.359,-1.277 1.046,-2.314 1.826,-3.143 0.782,-0.828 1.665,-1.453 2.493,-1.923 1.66,-0.94 3.09,-1.278 3.09,-1.278 0,0 0.132,0.492 0.304,1.311 C 7.9,-4.219 8.172,-3.1 8.385,-1.807 8.574,-0.502 8.849,0.91 8.933,2.359 9.004,3.818 9.028,5.242 8.778,6.531 8.527,7.82 8.189,8.939 7.781,9.863 7.381,10.781 6.93,11.496 6.398,11.998 5.36,13 3.978,13.145 2.673,12.221 -0.024,10.41 -1.59,5.143 0,0" style="fill:#7c860a;fill-opacity:1;fill-rule:nonzero;stroke:none" id="path1112"/>
        </g>
        <g id="g1114" transform="matrix(1, 0, 0, 1, 107.970398, 363.378418)">
          <path d="m 0,0 c -2.229,-1.039 -4.617,-1.002 -6.495,-0.646 -1.872,0.351 -3.191,1.003 -3.191,1.003 0,0 0.206,0.467 0.599,1.198 0.408,0.724 0.999,1.715 1.727,2.763 0.734,1.047 1.665,2.131 2.651,3.082 0.997,0.95 2.146,1.721 3.287,2.186 1.14,0.461 2.204,0.713 3.168,0.789 0.955,0.082 1.789,0.004 2.486,-0.205 C 5.626,9.752 6.475,8.826 6.61,7.594 6.95,5.068 4.377,2.133 0,0" style="fill:#7c860a;fill-opacity:1;fill-rule:nonzero;stroke:none" id="path1116"/>
        </g>
        <g id="g1118" transform="matrix(1, 0, 0, 1, 90.023071, 368.895996)">
          <path d="m 0,0 c 1.133,-2.377 3.258,-3.645 5.021,-4.338 1.775,-0.691 3.24,-0.822 3.24,-0.822 0,0 0.056,0.508 0.118,1.34 0.077,0.826 0.156,1.982 0.165,3.287 C 8.562,0.771 8.569,2.213 8.403,3.648 8.249,5.08 8.021,6.477 7.52,7.691 7.021,8.904 6.486,9.924 5.936,10.736 5.377,11.551 4.777,12.162 4.16,12.553 2.929,13.332 1.621,13.223 0.463,12.141 -0.635,11.057 -1.382,9.217 -1.501,7.045 -1.554,5.957 -1.472,4.791 -1.24,3.602 -0.997,2.408 -0.568,1.189 0,0" style="fill:#7c860a;fill-opacity:1;fill-rule:nonzero;stroke:none" id="path1120"/>
        </g>
        <g id="g1122" transform="matrix(1, 0, 0, 1, 104.610474, 349.51712)">
          <path d="m 0,0 c -2.055,-1.33 -4.474,-1.555 -6.375,-1.42 -1.9,0.129 -3.283,0.627 -3.283,0.627 0,0 0.162,0.486 0.469,1.256 0.298,0.773 0.772,1.828 1.383,2.955 1.208,2.262 3.046,4.797 5.221,6.021 4.356,2.446 7.647,1.616 8.242,-0.855 C 6.3,6.066 4.138,2.662 0,0" style="fill:#7c860a;fill-opacity:1;fill-rule:nonzero;stroke:none" id="path1124"/>
        </g>
        <g id="g1126" transform="matrix(1, 0, 0, 1, 86.135895, 352.870605)">
          <path d="m 0,0 c 1.452,-2.209 3.662,-3.215 5.503,-3.701 1.841,-0.481 3.313,-0.445 3.313,-0.445 0,0 0.009,0.511 -0.025,1.341 C 8.748,-1.967 8.695,-0.816 8.561,0.477 8.279,3.066 7.766,6.215 6.479,8.465 5.164,10.715 3.814,12.17 2.466,12.764 1.134,13.361 -0.138,13.08 -1.118,11.889 -3.036,9.51 -2.882,4.402 0,0" style="fill:#99ba13;fill-opacity:1;fill-rule:nonzero;stroke:none" id="path1128"/>
        </g>
        <g id="g1130" transform="matrix(1, 0, 0, 1, 87.175476, 328.985809)">
          <path d="m 0,0 c 0.221,0.023 0.366,0.299 0.326,0.611 0,0 -0.183,1.459 -0.629,3.989 -0.449,2.525 -1.162,6.123 -2.269,10.38 -2.195,8.499 -6,19.706 -11.912,29.885 -2.933,5.09 -6.399,9.879 -10.168,13.91 -3.74,4.061 -7.823,7.286 -11.576,9.608 -0.465,0.299 -0.92,0.588 -1.368,0.873 -0.455,0.265 -0.921,0.492 -1.363,0.732 -0.892,0.467 -1.738,0.912 -2.535,1.326 -1.647,0.713 -3.094,1.311 -4.286,1.801 -2.458,0.78 -3.863,1.227 -3.863,1.227 -0.3,0.097 -0.589,-0.006 -0.647,-0.225 -0.055,-0.203 0.14,-0.447 0.434,-0.545 0,0 1.383,-0.439 3.802,-1.205 1.174,-0.486 2.596,-1.074 4.221,-1.769 0.781,-0.414 1.613,-0.85 2.493,-1.313 0.435,-0.232 0.894,-0.453 1.342,-0.719 0.439,-0.279 0.889,-0.566 1.348,-0.859 3.695,-2.285 7.72,-5.465 11.414,-9.477 3.723,-3.978 7.156,-8.722 10.063,-13.763 5.861,-10.09 9.647,-21.235 11.829,-29.684 1.099,-4.234 1.81,-7.814 2.257,-10.322 C -0.644,1.949 -0.465,0.508 -0.465,0.508 -0.424,0.201 -0.217,-0.025 0,0" style="fill:#7c860a;fill-opacity:1;fill-rule:nonzero;stroke:none" id="path1132"/>
        </g>
        <g id="g1134" transform="matrix(1, 0, 0, 1, 45.694977, 389.112823)">
          <path d="m 0,0 c 2.198,0.738 4.036,2.355 5.256,3.822 1.222,1.453 1.829,2.795 1.83,2.795 0,0 -0.472,0.207 -1.25,0.498 C 5.053,7.395 3.987,7.799 2.753,8.074 1.494,8.305 0.106,8.473 -1.221,8.469 -2.582,8.396 -3.901,8.102 -4.976,7.586 -5.516,7.324 -5.998,7.045 -6.429,6.75 -6.866,6.445 -7.259,6.104 -7.595,5.773 -8.27,5.102 -8.747,4.418 -9.051,3.76 -9.652,2.436 -9.582,1.205 -8.902,0.35 -8.261,-0.627 -7.121,-1.045 -5.601,-1.049 -4.133,-1.172 -2.166,-0.668 0,0" style="fill:#7c860a;fill-opacity:1;fill-rule:nonzero;stroke:none" id="path1136"/>
        </g>
        <g id="g1138" transform="matrix(1, 0, 0, 1, 55.640778, 405.038513)">
          <path d="m 0,0 c 0.829,-2.666 0.048,-4.955 -0.873,-6.615 -0.936,-1.666 -1.986,-2.694 -1.986,-2.694 0,0 -0.38,0.334 -0.976,0.916 -0.6,0.577 -1.391,1.444 -2.29,2.407 -0.925,0.918 -1.922,1.998 -2.83,3.175 -0.938,1.11 -1.814,2.268 -2.386,3.495 -0.287,0.605 -0.537,1.191 -0.743,1.754 -0.211,0.546 -0.389,1.042 -0.517,1.529 -0.257,0.965 -0.336,1.826 -0.222,2.545 0.223,1.443 1.231,2.332 2.963,2.426 C -8.174,8.92 -6.093,8.084 -4.244,6.535 -2.452,4.881 -0.784,2.725 0,0" style="fill:#99ba13;fill-opacity:1;fill-rule:nonzero;stroke:none" id="path1140"/>
        </g>
        <g id="g1142" transform="matrix(1, 0, 0, 1, 36.670578, 407.124512)">
          <path d="M 0,0 C 2.768,-0.367 4.518,-2.035 5.638,-3.57 6.759,-5.117 7.25,-6.5 7.25,-6.5 7.25,-6.5 6.787,-6.707 6.007,-7 5.235,-7.305 4.116,-7.66 2.865,-8.072 1.645,-8.527 0.244,-8.979 -1.207,-9.309 c -1.4,-0.384 -2.818,-0.693 -4.17,-0.701 -0.672,-0.006 -1.308,0.014 -1.903,0.063 -0.587,0.039 -1.111,0.084 -1.607,0.172 -0.985,0.171 -1.798,0.457 -2.405,0.869 -1.217,0.802 -1.601,2.094 -0.958,3.703 0.725,1.521 2.354,3.062 4.538,4.092 C -5.461,-0.178 -2.802,0.43 0,0" style="fill:#7c860a;fill-opacity:1;fill-rule:nonzero;stroke:none" id="path1144"/>
        </g>
        <g id="g1146" transform="matrix(1, 0, 0, 1, 55.547485, 380.890106)">
          <path d="m 0,0 c 2.337,0.053 4.514,1.129 6.066,2.234 1.555,1.102 2.48,2.241 2.48,2.241 0,0 -0.392,0.332 -1.054,0.828 C 7.161,5.549 6.766,5.844 6.311,6.146 5.837,6.43 5.31,6.732 4.747,7.029 3.622,7.623 2.368,8.219 1.02,8.523 0.358,8.688 -0.303,8.811 -0.944,8.871 -1.584,8.936 -2.207,8.932 -2.822,8.814 -5.256,8.383 -6.901,7.457 -7.87,6.379 -8.835,5.303 -9.137,4.084 -8.75,3.006 -8.559,2.459 -8.189,2.029 -7.707,1.629 -7.233,1.209 -6.615,0.877 -5.863,0.635 -5.489,0.51 -5.073,0.424 -4.639,0.33 -4.214,0.225 -3.757,0.141 -3.269,0.082 -2.297,-0.041 -1.189,-0.053 0,0" style="fill:#99ba13;fill-opacity:1;fill-rule:nonzero;stroke:none" id="path1148"/>
        </g>
        <g id="g1150" transform="matrix(1, 0, 0, 1, 69.348297, 393.620605)">
          <path d="m 0,0 c 0.021,-2.758 -1.335,-4.781 -2.652,-6.154 -1.322,-1.369 -2.602,-2.102 -2.602,-2.102 0,0 -0.272,0.432 -0.68,1.162 -0.197,0.369 -0.435,0.811 -0.7,1.305 -0.28,0.48 -0.581,1.012 -0.888,1.594 -0.61,1.16 -1.222,2.509 -1.821,3.818 -0.286,0.668 -0.541,1.352 -0.749,2.035 -0.202,0.688 -0.359,1.373 -0.477,2.01 -0.431,2.59 -0.324,4.682 0.329,5.996 0.647,1.316 1.852,1.852 3.484,1.406 C -3.41,10.26 -0.149,5.424 0,0" style="fill:#99ba13;fill-opacity:1;fill-rule:nonzero;stroke:none" id="path1152"/>
        </g>
        <g id="g1154" transform="matrix(1, 0, 0, 1, 63.550873, 370.06781)">
          <path d="M 0,0 C 2.396,-0.428 4.688,0.16 6.436,0.957 8.171,1.738 9.3,2.684 9.3,2.684 c 0,0 -0.316,0.4 -0.861,1.021 C 7.882,4.318 7.049,5.121 6.088,5.957 5.149,6.805 3.949,7.594 2.756,8.246 1.57,8.912 0.265,9.342 -0.963,9.451 -2.189,9.563 -3.264,9.51 -4.184,9.326 -5.109,9.139 -5.894,8.807 -6.5,8.408 -7.727,7.594 -8.257,6.541 -8.129,5.312 -7.997,4.078 -7.089,3.059 -5.726,2.1 -5.035,1.633 -4.173,1.246 -3.217,0.885 -2.272,0.514 -1.193,0.213 0,0" style="fill:#99ba13;fill-opacity:1;fill-rule:nonzero;stroke:none" id="path1156"/>
        </g>
        <g id="g1158" transform="matrix(1, 0, 0, 1, 79.63147, 379.7612)">
          <path d="m 0,0 c -0.237,-1.305 -0.824,-2.4 -1.523,-3.299 -0.701,-0.898 -1.522,-1.603 -2.302,-2.15 -1.564,-1.09 -2.956,-1.561 -2.956,-1.561 0,0 -0.179,0.477 -0.426,1.278 -0.263,0.791 -0.639,1.878 -0.971,3.148 -0.31,1.279 -0.717,2.658 -0.937,4.096 -0.207,1.445 -0.365,2.863 -0.237,4.166 0.129,1.308 0.36,2.455 0.681,3.41 0.311,0.953 0.693,1.705 1.176,2.256 0.939,1.095 2.302,1.369 3.688,0.57 C -0.952,10.365 1.101,5.268 0,0" style="fill:#7c860a;fill-opacity:1;fill-rule:nonzero;stroke:none" id="path1160"/>
        </g>
        <g id="g1162" transform="matrix(1, 0, 0, 1, 69.790192, 357.57962)">
          <path d="M 0,0 C 2.316,-0.824 4.691,-0.566 6.527,-0.031 8.357,0.492 9.61,1.266 9.61,1.266 9.61,1.266 9.361,1.709 8.902,2.4 8.427,3.084 7.747,4.014 6.923,4.988 6.094,5.963 5.065,6.955 3.996,7.811 2.912,8.66 1.696,9.324 0.518,9.676 -0.661,10.027 -1.744,10.18 -2.711,10.166 -3.669,10.158 -4.493,10.002 -5.167,9.729 -6.515,9.182 -7.273,8.18 -7.292,6.941 -7.395,4.395 -4.557,1.713 0,0" style="fill:#7c860a;fill-opacity:1;fill-rule:nonzero;stroke:none" id="path1164"/>
        </g>
        <g id="g1166" transform="matrix(1, 0, 0, 1, 87.141296, 364.75531)">
          <path d="m 0,0 c -0.905,-2.473 -2.901,-3.934 -4.593,-4.789 -1.703,-0.856 -3.148,-1.121 -3.148,-1.121 0,0 -0.103,0.5 -0.243,1.322 -0.154,0.815 -0.341,1.959 -0.473,3.256 -0.139,1.297 -0.282,2.732 -0.252,4.178 0.02,1.439 0.115,2.851 0.501,4.107 0.383,1.258 0.819,2.32 1.291,3.18 0.481,0.863 1.02,1.529 1.598,1.972 1.153,0.897 2.465,0.909 3.719,-0.058 C -0.405,11.07 0.511,9.309 0.833,7.154 0.988,6.078 1.016,4.908 0.896,3.701 0.767,2.494 0.455,1.238 0,0" style="fill:#99ba13;fill-opacity:1;fill-rule:nonzero;stroke:none" id="path1168"/>
        </g>
        <g id="g1170" transform="matrix(1, 0, 0, 1, 74.435669, 344.093201)">
          <path d="m 0,0 c 2.17,-1.127 4.601,-1.127 6.48,-0.814 1.88,0.306 3.21,0.933 3.21,0.933 0,0 -0.207,0.471 -0.586,1.205 C 8.735,2.068 8.164,3.07 7.45,4.135 6.036,6.275 3.97,8.625 1.688,9.643 -2.877,11.666 -6.076,10.531 -6.437,8.016 -6.841,5.449 -4.37,2.262 0,0" style="fill:#7c860a;fill-opacity:1;fill-rule:nonzero;stroke:none" id="path1172"/>
        </g>
        <g id="g1174" transform="matrix(1, 0, 0, 1, 92.514282, 349.165497)">
          <path d="m 0,0 c -1.238,-2.334 -3.344,-3.543 -5.131,-4.199 -1.788,-0.655 -3.258,-0.754 -3.258,-0.754 0,0 -0.056,0.508 -0.099,1.338 -0.037,0.836 -0.092,1.988 -0.08,3.289 0.039,2.603 0.254,5.785 1.323,8.146 1.099,2.366 2.306,3.94 3.594,4.659 1.268,0.718 2.562,0.556 3.649,-0.536 C 2.131,9.752 2.456,4.654 0,0" style="fill:#99ba13;fill-opacity:1;fill-rule:nonzero;stroke:none" id="path1176"/>
        </g>
        <g id="g1178" transform="matrix(1, 0, 0, 1, 87.813599, 357.075623)">
          <path d="m 0,0 c 0.22,-0.027 0.428,0.205 0.462,0.518 0,0 0.174,1.461 0.348,4.021 0.17,2.563 0.341,6.225 0.289,10.623 -0.091,8.777 -1.095,20.57 -4.391,31.871 -1.625,5.643 -3.84,11.127 -6.533,15.944 -2.655,4.839 -5.845,8.949 -8.929,12.105 -0.381,0.4 -0.755,0.791 -1.119,1.174 -0.377,0.369 -0.777,0.701 -1.148,1.039 -0.755,0.666 -1.47,1.303 -2.142,1.898 -1.429,1.084 -2.69,2.012 -3.73,2.776 -2.199,1.345 -3.456,2.117 -3.456,2.117 -0.267,0.166 -0.572,0.137 -0.68,-0.061 -0.104,-0.187 0.027,-0.47 0.289,-0.636 0,0 1.238,-0.756 3.402,-2.082 1.023,-0.75 2.264,-1.664 3.672,-2.731 0.66,-0.588 1.363,-1.213 2.106,-1.871 0.367,-0.33 0.759,-0.656 1.131,-1.021 0.358,-0.375 0.727,-0.76 1.101,-1.157 3.039,-3.105 6.183,-7.156 8.808,-11.937 2.657,-4.76 4.852,-10.186 6.463,-15.777 C -0.789,35.607 0.212,23.881 0.302,15.156 0.353,10.779 0.183,7.137 0.015,4.594 -0.158,2.049 -0.33,0.605 -0.33,0.605 -0.364,0.297 -0.217,0.031 0,0" style="fill:#7c860a;fill-opacity:1;fill-rule:nonzero;stroke:none" id="path1180"/>
        </g>
        <g id="g1182" transform="matrix(1, 0, 0, 1, 61.97818, 425.403809)">
          <path d="m 0,0 c 2.311,0.187 4.483,1.316 6.02,2.449 1.535,1.117 2.445,2.274 2.447,2.274 0,0 -0.408,0.314 -1.094,0.783 C 6.68,5.965 5.742,6.613 4.609,7.176 3.443,7.703 2.137,8.199 0.847,8.516 -0.491,8.771 -1.843,8.801 -3.01,8.559 -3.597,8.434 -4.133,8.275 -4.623,8.098 -5.118,7.904 -5.582,7.668 -5.988,7.426 -6.804,6.939 -7.43,6.389 -7.884,5.82 -8.786,4.682 -9.013,3.469 -8.558,2.475 -8.17,1.373 -7.164,0.695 -5.69,0.324 -4.293,-0.145 -2.263,-0.131 0,0" style="fill:#7c860a;fill-opacity:1;fill-rule:nonzero;stroke:none" id="path1184"/>
        </g>
        <g id="g1186" transform="matrix(1, 0, 0, 1, 75.455688, 438.476013)">
          <path d="m 0,0 c 0.165,-2.787 -1.145,-4.82 -2.435,-6.213 -1.309,-1.392 -2.576,-2.137 -2.576,-2.137 0,0 -0.288,0.416 -0.726,1.125 -0.444,0.702 -1.005,1.733 -1.646,2.885 -0.678,1.113 -1.387,2.401 -1.985,3.76 -0.645,1.303 -1.215,2.639 -1.478,3.967 -0.133,0.656 -0.235,1.283 -0.301,1.879 -0.074,0.584 -0.126,1.107 -0.134,1.611 -0.019,0.996 0.113,1.852 0.396,2.523 0.563,1.348 1.754,1.967 3.459,1.645 1.631,-0.424 3.451,-1.734 4.875,-3.682 C -1.209,5.328 -0.107,2.832 0,0" style="fill:#99ba13;fill-opacity:1;fill-rule:nonzero;stroke:none" id="path1188"/>
        </g>
        <g id="g1190" transform="matrix(1, 0, 0, 1, 57.539673, 445.054199)">
          <path d="m 0,0 c 2.6,-1.018 3.898,-3.061 4.617,-4.816 0.718,-1.772 0.861,-3.235 0.861,-3.235 0,0 -0.499,-0.09 -1.326,-0.187 -0.824,-0.11 -1.993,-0.186 -3.308,-0.285 -1.294,-0.151 -2.762,-0.252 -4.249,-0.223 -1.451,-0.037 -2.903,0.002 -4.217,0.318 -0.654,0.158 -1.266,0.33 -1.833,0.518 -0.559,0.18 -1.058,0.349 -1.517,0.553 -0.916,0.404 -1.636,0.878 -2.128,1.421 -0.988,1.073 -1.051,2.416 -0.04,3.827 1.068,1.304 3.02,2.408 5.387,2.882 C -5.344,1.139 -2.617,1.09 0,0" style="fill:#7c860a;fill-opacity:1;fill-rule:nonzero;stroke:none" id="path1192"/>
        </g>
        <g id="g1194" transform="matrix(1, 0, 0, 1, 69.567993, 415.056122)">
          <path d="m 0,0 c 2.281,-0.51 4.654,0.014 6.426,0.713 1.773,0.697 2.945,1.58 2.945,1.58 0,0 -0.301,0.414 -0.825,1.057 C 8.284,3.668 7.97,4.049 7.602,4.453 7.21,4.84 6.77,5.264 6.296,5.684 5.346,6.533 4.272,7.41 3.037,8.029 2.434,8.348 1.822,8.627 1.213,8.838 0.609,9.055 0.003,9.199 -0.624,9.232 -3.09,9.4 -4.909,8.895 -6.108,8.082 -7.303,7.268 -7.89,6.158 -7.772,5.018 -7.717,4.441 -7.463,3.938 -7.09,3.43 -6.731,2.912 -6.21,2.441 -5.539,2.023 -5.205,1.811 -4.822,1.629 -4.424,1.432 -4.038,1.229 -3.612,1.039 -3.153,0.865 -2.24,0.512 -1.167,0.232 0,0" style="fill:#99ba13;fill-opacity:1;fill-rule:nonzero;stroke:none" id="path1196"/>
        </g>
        <g id="g1198" transform="matrix(1, 0, 0, 1, 86.021698, 424.102997)">
          <path d="m 0,0 c -0.643,-2.684 -2.443,-4.322 -4.052,-5.338 -1.612,-1.014 -3.031,-1.416 -3.031,-1.416 0,0 -0.16,0.484 -0.38,1.291 -0.104,0.404 -0.227,0.891 -0.367,1.434 -0.157,0.535 -0.321,1.125 -0.479,1.761 -0.315,1.272 -0.584,2.729 -0.852,4.145 -0.118,0.715 -0.201,1.437 -0.237,2.152 -0.033,0.719 -0.019,1.422 0.018,2.069 0.203,2.615 0.808,4.621 1.758,5.74 0.945,1.123 2.244,1.353 3.721,0.529 C -0.848,10.777 1.157,5.301 0,0" style="fill:#7c860a;fill-opacity:1;fill-rule:nonzero;stroke:none" id="path1200"/>
        </g>
        <g id="g1202" transform="matrix(1, 0, 0, 1, 74.740387, 402.628418)">
          <path d="m 0,0 c 2.223,-0.99 4.589,-0.971 6.477,-0.615 1.872,0.342 3.194,0.988 3.194,0.988 0,0 -0.208,0.467 -0.588,1.199 C 8.688,2.301 8.072,3.281 7.34,4.322 6.632,5.371 5.657,6.426 4.654,7.346 3.663,8.275 2.498,9.006 1.333,9.408 0.17,9.811 -0.886,10.016 -1.824,10.059 -2.766,10.098 -3.608,9.967 -4.292,9.725 -5.678,9.229 -6.447,8.332 -6.617,7.109 -6.785,5.877 -6.147,4.672 -5.055,3.412 -4.496,2.795 -3.752,2.213 -2.911,1.633 -2.083,1.045 -1.107,0.494 0,0" style="fill:#99ba13;fill-opacity:1;fill-rule:nonzero;stroke:none" id="path1204"/>
        </g>
        <g id="g1206" transform="matrix(1, 0, 0, 1, 92.67688, 408.179199)">
          <path d="m 0,0 c -0.543,-1.211 -1.375,-2.135 -2.269,-2.838 -0.897,-0.703 -1.864,-1.189 -2.751,-1.533 -1.781,-0.684 -3.245,-0.807 -3.245,-0.807 0,0 -0.059,0.508 -0.107,1.342 -0.065,0.832 -0.169,1.979 -0.187,3.289 0.006,1.318 -0.057,2.754 0.074,4.201 0.145,1.453 0.332,2.867 0.769,4.104 0.44,1.236 0.941,2.293 1.48,3.146 0.53,0.852 1.084,1.491 1.684,1.91 1.175,0.834 2.563,0.774 3.717,-0.334 C 1.564,10.291 2.334,4.85 0,0" style="fill:#7c860a;fill-opacity:1;fill-rule:nonzero;stroke:none" id="path1208"/>
        </g>
        <g id="g1210" transform="matrix(1, 0, 0, 1, 77.799469, 389.009216)">
          <path d="m 0,0 c 2.051,-1.359 4.419,-1.674 6.329,-1.6 1.903,0.069 3.304,0.522 3.304,0.522 0,0 -0.135,0.49 -0.415,1.271 C 8.922,0.971 8.484,2.035 7.919,3.182 7.348,4.324 6.587,5.537 5.753,6.623 4.906,7.707 3.885,8.643 2.825,9.268 1.766,9.895 0.75,10.299 -0.191,10.52 -1.124,10.742 -1.96,10.787 -2.68,10.684 -4.12,10.477 -5.097,9.686 -5.413,8.488 -6.123,6.041 -4.013,2.756 0,0" style="fill:#99ba13;fill-opacity:1;fill-rule:nonzero;stroke:none" id="path1212"/>
        </g>
        <g id="g1214" transform="matrix(1, 0, 0, 1, 96.365875, 391.809998)">
          <path d="m 0,0 c -1.472,-2.184 -3.761,-3.121 -5.607,-3.547 -1.858,-0.42 -3.326,-0.332 -3.326,-0.332 0,0 0.019,0.51 0.081,1.34 0.046,0.83 0.14,1.984 0.323,3.277 0.176,1.291 0.382,2.719 0.758,4.114 0.365,1.392 0.796,2.742 1.471,3.867 0.675,1.129 1.354,2.056 2.018,2.777 0.674,0.723 1.357,1.238 2.024,1.531 1.334,0.594 2.611,0.291 3.596,-0.947 C 2.263,10.844 2.73,8.912 2.527,6.746 2.417,5.662 2.165,4.521 1.759,3.379 1.343,2.236 0.739,1.092 0,0" style="fill:#99ba13;fill-opacity:1;fill-rule:nonzero;stroke:none" id="path1216"/>
        </g>
        <g id="g1218" transform="matrix(1, 0, 0, 1, 79.072388, 374.802216)">
          <path d="m 0,0 c 1.836,-1.617 4.196,-2.199 6.095,-2.346 1.899,-0.154 3.341,0.133 3.341,0.133 0,0 -0.089,0.506 -0.279,1.315 C 8.976,-0.09 8.663,1.021 8.225,2.225 7.366,4.643 5.924,7.42 3.953,8.955 0.007,12.016 -3.371,11.684 -4.325,9.326 -5.333,6.932 -3.699,3.244 0,0" style="fill:#99ba13;fill-opacity:1;fill-rule:nonzero;stroke:none" id="path1220"/>
        </g>
        <g id="g1222" transform="matrix(1, 0, 0, 1, 97.839996, 375.388123)">
          <path d="m 0,0 c -1.763,-1.971 -4.097,-2.639 -5.989,-2.848 -1.892,-0.205 -3.343,0.049 -3.343,0.049 0,0 0.066,0.506 0.223,1.326 0.166,0.819 0.389,1.952 0.713,3.209 0.663,2.52 1.636,5.559 3.24,7.592 1.634,2.031 3.184,3.272 4.605,3.658 1.405,0.395 2.622,-0.072 3.415,-1.394 C 4.409,8.953 3.502,3.928 0,0" style="fill:#99ba13;fill-opacity:1;fill-rule:nonzero;stroke:none" id="path1224"/>
        </g>
        <g id="g1226" transform="matrix(1, 0, 0, 1, 138.958191, 357.024902)">
          <path d="m 0,0 c 0,4.861 -0.559,9.582 -1.605,14.086 h -99.962 c -1.047,-4.504 -1.605,-9.225 -1.605,-14.086 0,-23.162 12.639,-43.066 30.743,-51.871 v -7.918 h 41.684 v 7.918 C -12.639,-43.066 0,-23.162 0,0" style="fill:#754c29;fill-opacity:1;fill-rule:nonzero;stroke:none" id="path1228"/>
        </g>
        <g id="g1230" transform="matrix(1, 0, 0, 1, -218.542816, 228.231903)">
          <g id="g1232"/>
          <g id="g1244">
            <g clip-path="url(#clipPath1236)" opacity="0.100006" id="g1242">
              <g transform="translate(357.501,128.793)" id="g1240">
                <path d="m 0,0 c 0,4.861 -0.559,9.582 -1.605,14.086 h -27.291 c 1.508,-13.475 5.036,-73.369 -53.694,-59.385 3.131,-2.592 6.534,-4.806 10.161,-6.572 v -7.918 h 41.684 v 7.918 C -12.639,-43.066 0,-23.162 0,0" style="fill:#414042;fill-opacity:1;fill-rule:nonzero;stroke:none" id="path1238"/>
              </g>
            </g>
          </g>
        </g>
      </g>
    </g>
  </g>
</svg>
